<svg xmlns="http://www.w3.org/2000/svg" width="143" height="30" fill="none"><g fill="#fff" clip-path="url(#a)"><path d="M5.549 2.462h.188l.803.761c0 .818-1.321 4.699-3.965 11.643a10.214 10.214 0 0 0-.79 3.434v.206c0 .37.26.717 1.055.717l.137.032c5.189-1.523 8.226-2.284 9.11-2.284.332-.01.66.075.941.245.282.17.505.418.64.71v.194c0 .378-1.188.628-3.564.749-1.26.74-3.83 1.505-7.714 2.297H1.98a2.22 2.22 0 0 1-1.202-.374 2.1 2.1 0 0 1-.78-.956v-1.717c0-.998 1.518-5.391 4.554-13.179.306-1.652.638-2.478.996-2.478ZM21.523 11.07l.54 5.331a13.35 13.35 0 0 1 .95 3.962c-.089.55-.362.826-.817.826-.24 0-.219-1.166-.816-3.33a4.112 4.112 0 0 1-.415-1.459l-3.162 2.9c-.2.293-.603.508-1.524.432-1.81-.15-2.446-1.644-2.446-3.761v-1.459c0-1.386.317-2.29.95-2.711.277.095.466.375.565.84a7.28 7.28 0 0 0-.282 2.284 5.045 5.045 0 0 0 .947 3.293l.643.068c2.525-.849 3.93-2.773 3.93-6.792.003-.478.624-.425.938-.425ZM29.12 11.33c.81.453 1.397.225 1.566 1.499l-.218.244h-.476l-1.175-.52c-2.747.305-4.144 2.157-4.144 4.773v.413a1.84 1.84 0 0 0 .395 1.368c.311.39.767.647 1.272.717l.857.023c2.358 0 3.719-.458 5.672-2.582l.687.402.076.481c-2.77 2.51-3.975 2.938-7.611 3.037-1.706.047-2.697-1.338-2.975-4.015 0-2.694 1.623-4.52 4.927-5.769l1.146-.072Z"/><path d="m33.906 11.858.93-.138-.476 2.938-.04.593-.188 2.4c.241.689.483 1.033.723 1.033h.174c1.233 0 2.83-1.528 4.967-2.918 1.117-.725 2.04-2.447 2.54-2.447.59.197.699 1.04.518 3.48a48.78 48.78 0 0 1-2.143 11.915l-.536.18-.174-.864v-.168l1.072-6.427.846-5.575c-.554 0-2.263 1.554-4.684 3.396l-2.763.857c-1.188-.5-1.788-1.123-1.788-2.113v-1.2c.092-1.49.638-4.942 1.022-4.942ZM53.173 14.14h.363c.588 0 1.004 1.89 1.245 5.667l.724.181a3.769 3.769 0 0 0 1.422-.664c.42-.317.763-.717 1.007-1.174l.237.635v.167c0 1.223-.83 1.967-2.492 2.234-1.483 0-2.318-.917-2.506-2.75v-1.201l.04-.265c-.16-.8-.187-1.117-.388-1.117-1.063 2.195-1.835 3.4-2.318 3.614h-.535l-.361-.349c1.348-2.733 2.535-4.393 3.562-4.978Zm.898-4.298h.361l.71.684v.168c.026.164.011.331-.042.488-.054.158-.145.301-.266.419-.12.118-.268.207-.43.26-.164.053-.337.07-.507.047-.34 0-.58-.46-.724-1.382l.898-.684Z"/><path d="M64.862 12.762c.878 0 1.356 1.893 1.434 5.68.34.305.78.488 1.245.516l3.387-1.55h.362v.168c-.545 1.058-2.09 2.146-4.636 3.263-.553 0-1.21-.628-1.969-1.885l-.174-4.13-.174-.168c-.33 0-1.108 1.088-2.331 3.263-1.018 2.176-1.97 3.263-2.855 3.263h-.348c-.598-.318-.897-1.118-.897-2.4a11.635 11.635 0 0 1 1.071-4.131c.277.058.522.213.688.435.166.221.24.494.21.766l-.188 2.93c.714-.534 1.843-2.2 3.387-4.996a2.996 2.996 0 0 1 1.788-1.024ZM83.698 2.352l.496.478v.232l-1.46 3.034-.483 1.626v.453l2.666-.453h1.688v.453c-.063.363-1.756.986-5.08 1.872a24.067 24.067 0 0 0-.737 5.601v1.627c.197 1.152.518 1.768.965 1.845.67 0 1.614-.494 2.721-1.578l.188-.048.483.477.134.242c-1.537 1.867-2.876 2.779-3.751 2.779a5.103 5.103 0 0 1-2.241-2.014 4.836 4.836 0 0 1-.666-2.88l.977-5.577h-.255l-1.915.453h-.496v-.93c0-.266 1.045-.653 3.135-1.161 1.402-4.354 2.613-6.53 3.631-6.53Z"/><path d="M91.443.897c.83 0 1.246 1.433 1.246 4.299 0 4.156-1.072 7.422-3.216 9.797l-.348 1.032v.35l.71 3.262c.205-.085.8-1.29 1.782-3.613l.896-1.027h.71l1.246 2.064c.446.389 1.009.633 1.607.698a6.786 6.786 0 0 0 2.489-.591l.365.41.376.404c-.366.61-1.633.842-3.053 1.144h-.71a3.952 3.952 0 0 1-2.318-1.368l-.536-.182c-.911 2.41-1.742 3.615-2.493 3.614-.848 0-1.683-1.488-2.505-4.466h-.361l-2.13 1.55-.898-.182v-.397c2.258-1.703 3.387-3.024 3.387-3.716v-1.55a26.852 26.852 0 0 1 1.97-9.293 6.121 6.121 0 0 1 1.246-2.052l.538-.187ZM89.3 11.392v1.032l.361.336a11.009 11.009 0 0 0 1.956-6.015l-.361-2.75C89.952 5.518 89.3 7.984 89.3 11.392Z"/><path d="M104.837 11.818h.59l.603.568c0 1.153-1.978 3.059-5.935 5.718v.387c.325.397.748.71 1.229.91.482.2 1.008.282 1.531.238a14.028 14.028 0 0 0 6.149-1.91h.59l.188.58c-1.823 1.651-4.214 2.598-6.715 2.66h-.613c-2.634 0-3.951-.956-3.951-2.866v-.374c-.002-2.702 2.109-4.672 6.334-5.911Zm-4.555 4.57a6.671 6.671 0 0 0 3.362-2.298v-.181l-.388-.374c-1.759 1.032-2.751 1.983-2.974 2.852ZM123.887 0l.57.538-.155.502c-3.091 3.201-4.315 4.423-6.143 4.907-1.274.337-1.553 1.824-1.553 2.322 0 1.334 1.309 2.618 4.045 3.693 2.143 1.42 3.273 2.83 3.273 4.388a6.311 6.311 0 0 1-2.679 3.95l-2.144.865c-.714-.146-1.072-.319-1.072-.517v-.163c0-.387.836-.73 2.506-1.032a5.675 5.675 0 0 0 1.392-1.793c.336-.682.526-1.42.561-2.174 0-.99-1.679-2.152-5.127-3.34-1.787-1.341-2.557-2.52-2.557-3.579.847-2.865 2.882-5.395 6.437-7.692A5.834 5.834 0 0 1 123.887 0ZM128.053 3.892l.227.15c.518 0-.651 1.148-.794 4.805l-.064.627a27.043 27.043 0 0 0-.698 5.461c-.01.394-.815 3.082-.815 3.749v.335l.497 2.85-.206.668-.291.096c-.628 0-1.163-1.316-1.608-3.95l.034-.271c.026-.318.099-.63.214-.93.84-2.294.524-1.043.636-2.067.852-7.697 1.949-11.523 2.868-11.523Zm2.831 10.506c.847-.332 1.094-.021 1.094.322 0 .602-.924 1.207-2.823 1.749l-1.505 1.118.025.69c4.174.581 4.421.831 4.421 1.262l-.642.252c-1.903 0-5.276-.402-5.276-1.434l.131-.7c-.009-.63 2.201-2.322 4.576-3.257l-.001-.002ZM133.463 13.832h.361l.361.336v.348l-.188 2.401c.241.688.329 1.045.722 1.16l.392-.127a20.74 20.74 0 0 0 4.454-2.5 4.517 4.517 0 0 1 2.47-.933c.59.198.885.714.885 1.55a59.933 59.933 0 0 1-2.144 11.913l-.537.181-.174-.864v-.168l1.072-6.427.71-4.815c-.554 0-3.676 1.688-6.081 3.363l-1.233.25a2.499 2.499 0 0 1-1.266-.839c-.32-.4-.5-.888-.516-1.394v-1.2c.09-1.49.327-2.235.712-2.235ZM51.184 25.253v3.263h2.017v.411h-2.523v-3.67l.506-.005ZM55.671 26.366c.072-.225.19-.433.345-.615.155-.18.35-.326.57-.427a2.06 2.06 0 0 1 1.59 0c.22.101.416.247.571.427.155.182.272.39.345.615.153.47.153.974 0 1.445-.073.224-.19.433-.345.614-.155.18-.35.325-.57.424a2.09 2.09 0 0 1-1.59 0 1.64 1.64 0 0 1-.572-.424 1.792 1.792 0 0 1-.344-.614 2.331 2.331 0 0 1 0-1.445Zm.47 1.269c.048.174.127.339.236.486.107.144.248.263.41.347a1.423 1.423 0 0 0 1.196 0 1.19 1.19 0 0 0 .41-.347c.109-.147.189-.312.236-.486.1-.359.1-.737 0-1.095a1.463 1.463 0 0 0-.235-.486 1.19 1.19 0 0 0-.411-.347 1.425 1.425 0 0 0-1.195 0 1.187 1.187 0 0 0-.411.347 1.458 1.458 0 0 0-.236.486c-.1.358-.1.736 0 1.095ZM63.87 25.754a1.107 1.107 0 0 0-.648-.181c-.106 0-.212.01-.315.03a.853.853 0 0 0-.275.103.553.553 0 0 0-.26.494c-.004.1.033.198.104.272a.782.782 0 0 0 .277.172c.127.048.259.085.393.11l.446.091c.151.032.3.072.446.121.14.043.272.107.392.188.115.078.21.18.277.298a1.014 1.014 0 0 1-.031.953 1.099 1.099 0 0 1-.35.34c-.146.089-.308.153-.477.19a2.408 2.408 0 0 1-1.132-.018 1.517 1.517 0 0 1-.502-.234 1.114 1.114 0 0 1-.341-.4 1.25 1.25 0 0 1-.125-.58h.48a.802.802 0 0 0 .093.399c.06.107.144.2.246.272.107.074.227.128.355.16.136.034.275.051.416.05.115 0 .23-.01.344-.03.11-.018.215-.054.312-.105a.576.576 0 0 0 .236-.222.547.547 0 0 0 .074-.31.45.45 0 0 0-.105-.308.764.764 0 0 0-.277-.193 2.104 2.104 0 0 0-.392-.12l-.446-.092c-.152-.032-.3-.07-.446-.113a1.626 1.626 0 0 1-.393-.17.772.772 0 0 1-.29-.294.737.737 0 0 1-.09-.397.945.945 0 0 1 .43-.815c.134-.09.284-.155.442-.195a2.12 2.12 0 0 1 1.054.003c.16.041.31.113.44.211.128.097.23.221.3.363.077.164.118.342.12.522h-.48a.742.742 0 0 0-.087-.314.773.773 0 0 0-.215-.25ZM72.766 25.253l1.49 3.67h-.565l-.416-1.105h-1.611l-.427 1.105h-.518l1.484-3.67h.563Zm.353 2.153-.635-1.711h-.011l-.646 1.711h1.292ZM77.294 25.253l2.006 2.975h.01v-2.975h.48v3.67h-.555l-1.99-2.945h-.01v2.945h-.48v-3.67h.54ZM85.042 28.88a1.867 1.867 0 0 1-.667.125 1.837 1.837 0 0 1-.763-.151 1.715 1.715 0 0 1-.929-1 1.996 1.996 0 0 1-.122-.694 2.514 2.514 0 0 1 .115-.763c.07-.231.186-.446.341-.635.153-.183.346-.331.565-.434.247-.113.518-.168.792-.162.197-.001.393.022.584.07.176.043.343.117.491.218.146.101.27.23.363.378.104.17.172.357.2.553h-.507a.883.883 0 0 0-.39-.612 1.129 1.129 0 0 0-.338-.147 1.62 1.62 0 0 0-.402-.049 1.197 1.197 0 0 0-.565.12 1.146 1.146 0 0 0-.435.366c-.108.152-.187.32-.233.499-.05.187-.075.38-.074.572 0 .188.028.374.085.553.054.17.139.328.252.468.11.135.25.245.408.324.175.083.369.125.564.12.18.004.36-.027.528-.09.146-.057.277-.142.385-.252.107-.11.19-.24.24-.383.054-.151.078-.31.07-.47h-1.217v-.412h1.67v1.933h-.32l-.133-.454a1.266 1.266 0 0 1-.558.408ZM91.56 25.253v.411h-2.124v1.167h1.976v.411h-1.976v1.27h2.14v.41h-2.647v-3.67h2.63ZM94.833 25.253v3.263h2.017v.411h-2.524v-3.67l.507-.004ZM102.056 25.253v.411h-2.123v1.167h1.976v.411h-1.976v1.27h2.137v.41h-2.644v-3.67h2.63ZM106.727 25.754a1.106 1.106 0 0 0-.648-.181c-.106 0-.212.01-.315.03a.858.858 0 0 0-.275.103.552.552 0 0 0-.261.494c-.003.1.034.198.105.272a.783.783 0 0 0 .277.172c.127.048.258.085.392.11l.446.091c.151.032.3.072.446.12.14.044.272.107.392.189.115.077.21.18.277.298a1.003 1.003 0 0 1-.032.953 1.084 1.084 0 0 1-.349.34c-.146.088-.308.153-.477.19a2.42 2.42 0 0 1-1.132-.019 1.525 1.525 0 0 1-.502-.233 1.112 1.112 0 0 1-.341-.401 1.236 1.236 0 0 1-.125-.578h.479a.803.803 0 0 0 .095.398c.06.107.143.2.245.271.106.075.227.129.355.16.135.034.275.052.416.052.115 0 .23-.01.344-.031a1.04 1.04 0 0 0 .312-.105.577.577 0 0 0 .236-.223.553.553 0 0 0 .074-.31.448.448 0 0 0-.105-.308.764.764 0 0 0-.277-.193 2.103 2.103 0 0 0-.392-.12l-.445-.09a5.487 5.487 0 0 1-.446-.114 1.637 1.637 0 0 1-.393-.17.777.777 0 0 1-.29-.294.744.744 0 0 1-.091-.397.942.942 0 0 1 .43-.815c.135-.09.285-.155.443-.195a2.117 2.117 0 0 1 1.054.003c.16.041.31.113.44.211.127.097.23.221.299.363.078.164.119.341.121.522h-.48a.753.753 0 0 0-.302-.565Z"/></g><defs><clipPath id="a"><path fill="#fff" d="M0 0h143v29.005H0z"/></clipPath></defs></svg>